<?xml version="1.0" encoding="UTF-8"?>
<svg width="2585px" height="2205px" viewBox="0 0 2585 2205" version="1.1" xmlns="http://www.w3.org/2000/svg" xmlns:xlink="http://www.w3.org/1999/xlink">
    <title>CRISP-DM_1</title>
    <defs>
        <linearGradient x1="50%" y1="0%" x2="50%" y2="100%" id="linearGradient-1">
            <stop stop-color="#FFE800" offset="0%"></stop>
            <stop stop-color="#FEE601" offset="20.0865609%"></stop>
            <stop stop-color="#F6AE1F" offset="72.5542341%"></stop>
            <stop stop-color="#F5A623" offset="100%"></stop>
        </linearGradient>
        <linearGradient x1="50%" y1="0%" x2="50%" y2="100%" id="linearGradient-2">
            <stop stop-color="#B1D474" offset="0%"></stop>
            <stop stop-color="#907DA0" offset="100%"></stop>
        </linearGradient>
        <linearGradient x1="50%" y1="0%" x2="50%" y2="100%" id="linearGradient-3">
            <stop stop-color="#5198AB" offset="0%"></stop>
            <stop stop-color="#8F8388" offset="100%"></stop>
        </linearGradient>
        <path d="M42.953255,81.7780856 C48.9310996,88.7815101 48.2011386,99.3926958 41.326308,105.47843 L27.3188921,117.878797 C20.4440615,123.966631 10.0245897,123.223239 4.04674503,116.221914 C-1.93109959,109.21849 -1.20113857,98.6073042 5.67369205,92.5215698 L19.6811079,80.1212034 C26.5559385,74.033369 36.9754103,74.776761 42.953255,81.7780856 Z" id="path-4"></path>
        <path d="M71.8872759,93.7392452 C77.9625847,100.694739 77.2207222,111.231216 70.2338027,117.277385 L41.764306,141.906297 C34.7773865,147.952467 24.188033,147.216248 18.1127241,140.260755 C12.0374153,133.305261 12.7792778,122.768784 19.7661973,116.722615 L48.235694,92.0937027 C55.2226135,86.0475332 65.811967,86.7837518 71.8872759,93.7392452 Z" id="path-6"></path>
        <path d="M86.916586,111.77599 C92.9477646,118.776874 92.2131179,129.384211 85.2745571,135.467738 L58.5712956,158.880291 C51.6327348,164.965918 41.1166737,164.222795 35.083414,157.22401 C29.0522354,150.223126 29.7868821,139.615789 36.7254429,133.532262 L63.4287044,110.119709 C70.3672652,104.034082 80.8833263,104.777205 86.916586,111.77599 Z" id="path-8"></path>
        <path d="M101.938042,133.681078 C107.937817,140.566924 107.206995,150.99996 100.302493,156.983522 L78.4296093,175.947987 C71.5251069,181.933614 61.0638025,181.202702 55.0619577,174.318922 C49.0621833,167.433076 49.7930047,157.00004 56.697507,151.016478 L78.5703907,132.052013 C85.4748931,126.066386 95.9361975,126.797298 101.938042,133.681078 Z" id="path-10"></path>
    </defs>
    <g id="CRISP-DM_1" stroke="none" stroke-width="1" fill="none" fill-rule="evenodd">
        <path d="M450.362922,1009.75927 C448.137486,1033.87415 447,1058.30424 447,1083 C447,1517.6481 799.351902,1870 1234,1870 C1668.6481,1870 2021,1517.6481 2021,1083 C2021,648.351902 1668.6481,296 1234,296" id="Path" stroke="#BFBFBF" stroke-width="10" stroke-dasharray="23"></path>
        <g id="Group-20" transform="translate(1723.389793, 346.213526) rotate(3.000000) translate(-1723.389793, -346.213526) translate(1649.478952, 297.519255)" fill-rule="nonzero" stroke="#C8C8C8" stroke-linecap="round">
            <polyline id="Path" stroke-width="9.49999988" stroke-linejoin="round" transform="translate(17.514056, 17.514056) rotate(-109.000000) translate(-17.514056, -17.514056) " points="3.73525109 3.73525109 31.2928603 3.73525109 31.2928603 31.2928603"></polyline>
            <path d="M147.821682,97.3885432 C104.711687,61.8939994 56.2418187,32.7541326 3.82168166,11.3885432" id="Path" stroke-width="11.3999999"></path>
        </g>
        <g id="Group-30" transform="translate(1733.831658, 1811.549700) rotate(-3.000000) translate(-1733.831658, -1811.549700) translate(1654.000000, 1763.099400)" fill-rule="nonzero" stroke="#C8C8C8" stroke-linecap="round">
            <polyline id="Path" stroke-width="9.49999988" stroke-linejoin="round" transform="translate(143.247104, 16.416212) rotate(-354.000000) translate(-143.247104, -16.416212) " points="128.31038 1.47948788 158.183828 1.47948788 158.183828 31.352936"></polyline>
            <path d="M0,96.9006004 C57.0890721,74.4568501 109.933287,43.6143106 157,5.90060045" id="Path" stroke-width="11.3999999"></path>
        </g>
        <polyline id="Path" stroke="#BFBFBF" stroke-width="9.49999988" stroke-linecap="round" stroke-linejoin="round" fill-rule="nonzero" transform="translate(447.181371, 1022.681357) rotate(-34.000000) translate(-447.181371, -1022.681357) " points="411.181371 986.681357 483.181371 986.681357 483.181371 1058.68136"></polyline>
        <path d="M1474.92573,170.530983 C1431.77439,96.5864942 1351.58964,46.8999931 1259.79998,46.8999931 C1122.3363,46.8999931 1010.89998,158.336317 1010.89998,295.79999 C1010.89998,433.263662 1122.3363,544.699987 1259.79998,544.699987 C1313.78639,544.699987 1363.75839,527.512203 1404.54235,498.310239 C1437.68655,474.578475 1464.76256,442.91202 1482.99359,406.08769" id="Path" stroke="#FFE800" stroke-width="25" fill="#FFFFFF" fill-rule="nonzero" transform="translate(1246.946784, 295.799990) scale(-1, 1) rotate(-360.000000) translate(-1246.946784, -295.799990) "></path>
        <path d="M1474.92573,1784.53098 C1431.77439,1710.58649 1351.58964,1660.89999 1259.79998,1660.89999 C1122.3363,1660.89999 1010.89998,1772.33632 1010.89998,1909.79999 C1010.89998,2047.26366 1122.3363,2158.69999 1259.79998,2158.69999 C1313.78639,2158.69999 1363.75839,2141.5122 1404.54235,2112.31024 C1437.68655,2088.57848 1464.76256,2056.91202 1482.99359,2020.08769" id="Path-Copy-2" stroke="#F5A722" stroke-width="25" fill="#FFFFFF" fill-rule="nonzero" transform="translate(1246.946784, 1909.799990) scale(1, -1) translate(-1246.946784, -1909.799990) "></path>
        <g id="Group-29" transform="translate(1177.399987, 1811.167131)" fill-rule="nonzero" stroke="#5F575A">
            <g id="Group-3">
                <rect id="Rectangle" stroke-width="9.49999988" x="4.74999994" y="4.74999994" width="125.399998" height="161.499998"></rect>
                <line x1="28.4999996" y1="42.7499995" x2="107.565233" y2="42.7499995" id="Line-4" stroke-width="7.5999999" stroke-linecap="square"></line>
                <line x1="28.4999996" y1="61.7499992" x2="107.565233" y2="61.7499992" id="Line-4" stroke-width="7.5999999" stroke-linecap="square"></line>
            </g>
            <path d="M154.849998,155.182843 L154.849998,204.514057 L111.264959,189.095674 L67.4499992,204.524326 L67.4499992,155.182843 L154.849998,155.182843 Z" id="Rectangle" stroke-width="9.49999988" fill="#FFFFFF"></path>
            <g id="Group-Copy" transform="translate(51.299999, 53.532844)" stroke-width="9.49999988">
                <g id="Group-5">
                    <circle id="Oval" fill="#FFFFFF" cx="59.8499992" cy="59.8499992" r="59.8499992"></circle>
                    <polyline id="Path-2" stroke-linecap="round" points="28.7886072 59.5836573 53.565784 81.2875682 91.8406288 37.8797464"></polyline>
                </g>
            </g>
        </g>
        <path d="M856.724765,267.499991 C864.568766,267.499991 867.960766,264.616791 867.960766,259.23199 C867.960766,256.09439 865.883166,253.423189 862.830366,252.490389 C865.374366,251.345589 866.603966,248.674389 866.603966,246.299988 C866.603966,241.466388 862.872766,237.819987 856.173565,237.819987 L845.870363,237.819987 L845.870363,267.499991 L856.724765,267.499991 Z M855.961565,250.412789 L851.975964,250.412789 L851.975964,242.907988 L855.961565,242.907988 C859.268765,242.907988 860.498365,244.264788 860.498365,246.639188 C860.498365,249.013589 859.268765,250.412789 855.961565,250.412789 Z M857.233565,262.411991 L851.975964,262.411991 L851.975964,255.50079 L857.233565,255.50079 C860.455965,255.50079 861.643166,256.81519 861.643166,258.97759 C861.643166,261.13999 860.455965,262.411991 857.233565,262.411991 Z M887.774267,268.008791 C894.558268,268.008791 900.239869,263.938391 900.239869,254.94959 L900.239869,237.819987 L894.134268,237.819987 L894.134268,255.33119 C894.134268,260.54639 891.081468,262.751191 887.774267,262.751191 C884.467067,262.751191 881.414266,260.54639 881.414266,255.33119 L881.414266,237.819987 L875.308665,237.819987 L875.308665,254.94959 C875.308665,263.938391 880.990266,268.008791 887.774267,268.008791 Z M918.314969,268.008791 C924.293369,268.008791 928.02457,264.489591 928.02457,259.25319 C928.02457,255.09799 926.11657,252.426789 920.180569,249.882789 C916.025368,248.101989 914.795768,247.063188 914.795768,245.282388 C914.795768,243.798388 915.770968,242.568788 917.806168,242.568788 C919.798969,242.568788 920.986169,243.798388 920.986169,245.621588 L927.17657,245.621588 C927.17657,240.448788 923.190969,237.311187 917.890969,237.311187 C912.166968,237.311187 908.605367,240.491188 908.605367,245.367188 C908.605367,249.713189 910.704167,252.511589 916.618968,254.94959 C920.646969,256.60319 921.834169,257.70559 921.834169,259.61359 C921.834169,261.52159 920.477369,262.751191 918.399769,262.751191 C916.322168,262.751191 914.838168,261.73359 914.626168,259.61359 L908.435767,259.61359 C908.774967,264.362391 912.336568,268.008791 918.314969,268.008791 Z M941.90207,267.499991 L941.90207,237.819987 L935.79647,237.819987 L935.79647,267.499991 L941.90207,267.499991 Z M957.899573,267.499991 L957.899573,248.843989 L972.018775,267.499991 L976.513175,267.499991 L976.513175,237.819987 L970.407575,237.819987 L970.407575,256.43359 L956.288373,237.819987 L951.793972,237.819987 L951.793972,267.499991 L957.899573,267.499991 Z M1004.80668,267.499991 L1004.80668,262.327191 L992.298675,262.327191 L992.298675,256.13679 L1002.47468,256.13679 L1002.47468,250.963989 L992.298675,250.963989 L992.298675,242.992788 L1004.42508,242.992788 L1004.42508,237.819987 L986.193074,237.819987 L986.193074,267.499991 L1004.80668,267.499991 Z M1021.60978,268.008791 C1027.58818,268.008791 1031.31938,264.489591 1031.31938,259.25319 C1031.31938,255.09799 1029.41138,252.426789 1023.47538,249.882789 C1019.32018,248.101989 1018.09058,247.063188 1018.09058,245.282388 C1018.09058,243.798388 1019.06578,242.568788 1021.10098,242.568788 C1023.09378,242.568788 1024.28098,243.798388 1024.28098,245.621588 L1030.47138,245.621588 C1030.47138,240.448788 1026.48578,237.311187 1021.18578,237.311187 C1015.46178,237.311187 1011.90018,240.491188 1011.90018,245.367188 C1011.90018,249.713189 1013.99898,252.511589 1019.91378,254.94959 C1023.94178,256.60319 1025.12898,257.70559 1025.12898,259.61359 C1025.12898,261.52159 1023.77218,262.751191 1021.69458,262.751191 C1019.61698,262.751191 1018.13298,261.73359 1017.92098,259.61359 L1011.73058,259.61359 C1012.06978,264.362391 1015.63138,268.008791 1021.60978,268.008791 Z M1047.27448,268.008791 C1053.25288,268.008791 1056.98408,264.489591 1056.98408,259.25319 C1056.98408,255.09799 1055.07608,252.426789 1049.14008,249.882789 C1044.98488,248.101989 1043.75528,247.063188 1043.75528,245.282388 C1043.75528,243.798388 1044.73048,242.568788 1046.76568,242.568788 C1048.75848,242.568788 1049.94568,243.798388 1049.94568,245.621588 L1056.13608,245.621588 C1056.13608,240.448788 1052.15048,237.311187 1046.85048,237.311187 C1041.12648,237.311187 1037.56488,240.491188 1037.56488,245.367188 C1037.56488,249.713189 1039.66368,252.511589 1045.57848,254.94959 C1049.60648,256.60319 1050.79368,257.70559 1050.79368,259.61359 C1050.79368,261.52159 1049.43688,262.751191 1047.35928,262.751191 C1045.28168,262.751191 1043.79768,261.73359 1043.58568,259.61359 L1037.39528,259.61359 C1037.73448,264.362391 1041.29608,268.008791 1047.27448,268.008791 Z M678.666056,323.108791 C685.450057,323.108791 691.131657,319.03839 691.131657,310.049589 L691.131657,292.919986 L685.026056,292.919986 L685.026056,310.431189 C685.026056,315.64639 681.973256,317.85119 678.666056,317.85119 C675.358855,317.85119 672.306055,315.64639 672.306055,310.431189 L672.306055,292.919986 L666.200454,292.919986 L666.200454,310.049589 C666.200454,319.03839 671.882055,323.108791 678.666056,323.108791 Z M706.917157,322.599991 L706.917157,303.943988 L721.036359,322.599991 L725.530759,322.599991 L725.530759,292.919986 L719.425158,292.919986 L719.425158,311.533589 L705.305956,292.919986 L700.811556,292.919986 L700.811556,322.599991 L706.917157,322.599991 Z M745.132259,322.599991 C754.75706,322.599991 761.244261,317.21519 761.244261,307.759989 C761.244261,298.347187 754.75706,292.919986 745.132259,292.919986 L735.210658,292.919986 L735.210658,322.599991 L745.132259,322.599991 Z M745.174659,317.42719 L741.316259,317.42719 L741.316259,298.092787 L745.174659,298.092787 C750.72906,298.092787 755.05386,301.315188 755.05386,307.802389 C755.05386,314.204789 750.72906,317.42719 745.174659,317.42719 Z M787.417762,322.599991 L787.417762,317.42719 L774.909761,317.42719 L774.909761,311.236789 L785.085762,311.236789 L785.085762,306.063988 L774.909761,306.063988 L774.909761,298.092787 L787.036162,298.092787 L787.036162,292.919986 L768.80416,292.919986 L768.80416,322.599991 L787.417762,322.599991 Z M801.931263,322.599991 L801.931263,313.950389 L804.093663,313.950389 C808.248864,313.950389 811.004864,316.91839 811.513664,321.79439 L811.598464,322.599991 L817.534465,322.599991 L817.449665,321.70959 C817.025665,317.17279 815.160065,313.950389 812.234464,312.127189 C815.711265,310.515989 817.746465,307.293588 817.746465,303.307988 C817.746465,297.499187 813.336864,292.919986 806.044063,292.919986 L795.825662,292.919986 L795.825662,322.599991 L801.931263,322.599991 Z M805.916863,308.862389 L801.931263,308.862389 L801.931263,298.007987 L805.916863,298.007987 C809.266464,298.007987 811.556064,299.873587 811.556064,303.435188 C811.556064,306.996788 809.266464,308.862389 805.916863,308.862389 Z M834.125565,323.108791 C840.103966,323.108791 843.835166,319.58959 843.835166,314.353189 C843.835166,310.197989 841.927166,307.526788 835.991165,304.982788 C831.835965,303.201988 830.606365,302.163188 830.606365,300.382387 C830.606365,298.898387 831.581565,297.668787 833.616765,297.668787 C835.609565,297.668787 836.796765,298.898387 836.796765,300.721588 L842.987166,300.721588 C842.987166,295.548787 839.001566,292.411186 833.701565,292.411186 C827.977564,292.411186 824.415964,295.591187 824.415964,300.467188 C824.415964,304.813188 826.514764,307.611589 832.429565,310.049589 C836.457565,311.703189 837.644766,312.805589 837.644766,314.713589 C837.644766,316.62159 836.287965,317.85119 834.210365,317.85119 C832.132765,317.85119 830.648765,316.83359 830.436765,314.713589 L824.246364,314.713589 C824.585564,319.46239 828.147164,323.108791 834.125565,323.108791 Z M863.309468,322.599991 L863.309468,298.092787 L871.238269,298.092787 L871.238269,292.919986 L849.275066,292.919986 L849.275066,298.092787 L857.203867,298.092787 L857.203867,322.599991 L863.309468,322.599991 Z M879.858169,322.599991 L881.554169,318.19039 L894.358971,318.19039 L896.054971,322.599991 L902.414972,322.599991 L890.41577,292.919986 L885.497369,292.919986 L873.498168,322.599991 L879.858169,322.599991 Z M892.40857,313.102389 L883.504569,313.102389 L887.95657,301.569588 L892.40857,313.102389 Z M914.808471,322.599991 L914.808471,303.943988 L928.927673,322.599991 L933.422074,322.599991 L933.422074,292.919986 L927.316473,292.919986 L927.316473,311.533589 L913.197271,292.919986 L908.70287,292.919986 L908.70287,322.599991 L914.808471,322.599991 Z M953.023574,322.599991 C962.648375,322.599991 969.135576,317.21519 969.135576,307.759989 C969.135576,298.347187 962.648375,292.919986 953.023574,292.919986 L943.101972,292.919986 L943.101972,322.599991 L953.023574,322.599991 Z M953.065974,317.42719 L949.207573,317.42719 L949.207573,298.092787 L953.065974,298.092787 C958.620374,298.092787 962.945175,301.315188 962.945175,307.802389 C962.945175,314.204789 958.620374,317.42719 953.065974,317.42719 Z M983.013075,322.599991 L983.013075,292.919986 L976.907474,292.919986 L976.907474,322.599991 L983.013075,322.599991 Z M999.010577,322.599991 L999.010577,303.943988 L1013.12978,322.599991 L1017.62418,322.599991 L1017.62418,292.919986 L1011.51858,292.919986 L1011.51858,311.533589 L997.399377,292.919986 L992.904976,292.919986 L992.904976,322.599991 L999.010577,322.599991 Z M1041.08408,323.108791 C1050.62408,323.108791 1056.89928,316.87599 1056.98408,307.759989 L1040.78728,307.759989 L1040.78728,312.720789 L1049.56408,312.720789 C1048.08008,315.94319 1045.11208,317.85119 1041.08408,317.85119 C1035.44488,317.85119 1031.37448,313.823189 1031.37448,307.759989 C1031.37448,301.696788 1035.82648,297.668787 1041.08408,297.668787 C1044.81528,297.668787 1048.20728,299.746387 1049.81848,303.180788 L1056.34808,303.180788 C1054.44008,296.608787 1048.24968,292.411186 1041.08408,292.411186 C1032.30728,292.411186 1025.18408,298.643987 1025.18408,307.759989 C1025.18408,316.87599 1031.96808,323.108791 1041.08408,323.108791 Z" id="BusinessUnderstanding" fill="#5F575A" fill-rule="nonzero"></path>
        <path d="M2131.92573,1295.53098 C2088.77439,1221.58649 2008.58964,1171.89999 1916.79998,1171.89999 C1779.3363,1171.89999 1667.89998,1283.33632 1667.89998,1420.79999 C1667.89998,1558.26366 1779.3363,1669.69999 1916.79998,1669.69999 C1970.78639,1669.69999 2020.75839,1652.5122 2061.54235,1623.31024 C2094.68655,1599.57848 2121.76256,1567.91202 2139.99359,1531.08769" id="Path-Copy-5" stroke="#5198AB" stroke-width="25" fill="#FFFFFF" fill-rule="nonzero"></path>
        <path d="M789.925731,1295.53098 C746.774393,1221.58649 666.589637,1171.89999 574.799977,1171.89999 C437.336305,1171.89999 325.89998,1283.33632 325.89998,1420.79999 C325.89998,1558.26366 437.336305,1669.69999 574.799977,1669.69999 C628.786393,1669.69999 678.758387,1652.5122 719.542355,1623.31024 C752.686546,1599.57848 779.762562,1567.91202 797.993588,1531.08769" id="Path-Copy-5" stroke="#9E8DAC" stroke-width="25" fill="#FFFFFF" fill-rule="nonzero" transform="translate(561.946784, 1420.799990) scale(-1, 1) translate(-561.946784, -1420.799990) "></path>
        <path d="M586.557514,1357.35659 C614.870597,1387.91146 612.575836,1435.52584 581.425502,1463.70994 C550.271408,1491.89191 502.065908,1489.97055 473.752825,1459.41568 C445.436767,1428.86161 447.737478,1381.24563 478.888597,1353.06446 C510.035956,1324.88116 558.244431,1326.80172 586.557514,1357.35659 Z" id="Stroke-1" stroke="#5F575A" stroke-width="9.49999988" stroke-linecap="round" stroke-linejoin="round"></path>
        <path d="M648.958305,1532.88294 L647.99343,1533.76796 C644.336306,1537.11388 638.659833,1536.86357 635.313966,1533.20617 L588.83088,1482.44064 C585.485013,1478.78324 585.731395,1473.10432 589.391486,1469.7576 L590.354189,1468.87634 C594.009724,1465.52448 599.689958,1465.77697 603.035825,1469.43437 L649.515944,1520.20069 C652.864778,1523.8573 652.617601,1529.53325 648.958305,1532.88294 Z" id="Stroke-3" stroke="#5F575A" stroke-width="9.49999988" stroke-linecap="round" stroke-linejoin="round"></path>
        <g id="Group-9" transform="translate(1852.299978, 1329.899980)" stroke="#5F575A">
            <g id="Group-3" fill-rule="nonzero">
                <path d="M134.899998,142.678123 L134.899998,153.899998 C134.899998,163.344067 127.244068,171 117.799999,171 L17.0999998,171 C7.65593068,171 0,163.344067 0,153.899998 L0,17.0999998 C0,7.65593068 7.65593068,-7.10542736e-15 17.0999998,-7.10542736e-15 L117.799999,-7.10542736e-15 C127.244068,-7.10542736e-15 134.899998,7.65593068 134.899998,17.0999998 L134.899998,67.3312492" id="Path" stroke-width="9.49999988"></path>
                <line x1="28.4999996" y1="42.7499995" x2="107.565233" y2="42.7499995" id="Line-4" stroke-width="7.5999999" stroke-linecap="square"></line>
                <line x1="28.4999996" y1="61.7499992" x2="107.565233" y2="61.7499992" id="Line-4" stroke-width="7.5999999" stroke-linecap="square"></line>
            </g>
            <g id="Group-21" transform="translate(107.350739, 80.750118)" stroke-linecap="round" stroke-linejoin="round">
                <path d="M38.4470896,29.307381 C35.2189897,38.0796809 25.4890898,42.5731809 16.7167899,39.3450809 C7.94449,36.115081 3.45099006,26.3870811 6.67909002,17.6147812 C9.90718998,8.84248129 19.6370899,4.34898135 28.4093897,7.57708131 C37.1816896,10.8051813 41.6751896,20.5350811 38.4470896,29.307381 Z" id="Stroke-1" stroke-width="7.5999999"></path>
                <path d="M22.8091398,5.55380322 C22.3968398,5.55757133 22.0548398,5.22127134 22.0510398,4.80897134 L21.9826398,0.758171395 C21.9788398,0.3458714 22.3151398,0.00387140464 22.7274398,7.14046875e-05 C23.1397398,-0.00562859524 23.4570398,0.330671401 23.4627398,0.742971395 L23.5273398,4.79377134 C23.5330398,5.20607134 23.2214398,5.54807134 22.8091398,5.55380322 Z" id="Stroke-3" stroke-width="5.69999993"></path>
                <path d="M34.3297897,9.89185128 C34.0124897,9.62965128 33.9668897,9.15275129 34.2271897,8.83355129 L36.7237896,5.41925134 C36.9840896,5.10195134 37.4609896,5.05635134 37.7801896,5.31855134 C38.0974896,5.57885133 38.1259896,6.04245133 37.8637896,6.35975132 L35.3690897,9.77405128 C35.1068897,10.0913513 34.6489897,10.1540513 34.3297897,9.89185128 Z" id="Stroke-5" stroke-width="5.69999993"></path>
                <path d="M39.5566896,20.5886611 C39.4844896,20.1839612 39.7580896,19.7887612 40.1646896,19.7165612 L45.0153895,18.5252612 C45.4200895,18.4530612 45.8133895,18.7266612 45.8855895,19.1313612 C45.9577895,19.5379612 45.6803895,19.9084612 45.2756895,19.9806612 L40.4249896,21.1719611 C40.0183896,21.2441611 39.6307896,20.9933611 39.5566896,20.5886611 Z" id="Stroke-7" stroke-width="5.69999993"></path>
                <path d="M37.8330096,31.657301 C38.0344096,31.300101 38.4980096,31.172801 38.8552096,31.376101 L42.9231096,33.815701 C43.2803096,34.019001 43.4076096,34.480701 43.2024096,34.839801 C42.9991096,35.197001 42.5488096,35.301501 42.1916096,35.100101 L38.1237096,32.660501 C37.7684096,32.457201 37.6297096,32.014501 37.8330096,31.657301 Z" id="Stroke-9" stroke-width="5.69999993"></path>
                <path d="M29.0789497,39.2166409 C29.4646497,39.0741409 29.9016497,39.2755409 30.0422497,39.6612409 L31.4748497,44.2022409 C31.6173497,44.5879408 31.4140497,45.0249408 31.0283497,45.1655408 C30.6426497,45.3099408 30.2303497,45.0971408 30.0878497,44.7114408 L28.6552497,40.1723409 C28.5127497,39.7866409 28.6932497,39.3591409 29.0789497,39.2166409 Z" id="Stroke-11" stroke-width="5.69999993"></path>
                <path d="M16.9497299,40.1599909 C17.3373299,40.3005909 17.5425299,40.7337909 17.4000299,41.1213909 L16.0092299,44.7674908 C15.8686299,45.1531908 15.4354299,45.3564908 15.0478299,45.2177908 C14.6621299,45.0771908 14.4797299,44.6534908 14.6203299,44.2658908 L16.0130299,40.6197909 C16.1517299,40.2321909 16.5621299,40.0212909 16.9497299,40.1599909 Z" id="Stroke-13" stroke-width="5.69999993"></path>
                <path d="M7.22895001,32.638081 C7.43605001,32.993381 7.31255001,33.458881 6.95535001,33.665981 L3.81275005,35.248681 C3.45745006,35.455781 2.99385006,35.332281 2.78675007,34.973181 C2.58155007,34.617881 2.71645007,34.175181 3.07175006,33.968081 L6.21625002,32.385381 C6.57155002,32.178281 7.02375001,32.282781 7.22895001,32.638081 Z" id="Stroke-15" stroke-width="5.69999993"></path>
                <path d="M5.43649003,19.7731812 C5.36619003,20.1797812 4.97479004,20.4533811 4.56819004,20.3830811 L0.621890093,20.1189812 C0.215290098,20.0486812 -0.0621098989,19.6553812 0.0119901002,19.2525812 C0.0822900993,18.8459812 0.469890094,18.5932812 0.876490089,18.6654812 L4.82279004,18.9276812 C5.22939003,18.9998812 5.50869003,19.3684812 5.43649003,19.7731812 Z" id="Stroke-17" stroke-width="5.69999993"></path>
                <path d="M11.51877,9.94562128 C11.20337,10.2097213 10.72457,10.1698213 10.46047,9.85442128 L7.92017,6.47622132 C7.65607,6.16272133 7.69597,5.68392133 8.01327,5.41982134 C8.32867,5.15572134 8.78846999,5.21272134 9.05256999,5.52812134 L11.59287,8.90442129 C11.85887,9.21792129 11.83417,9.68152128 11.51877,9.94562128 Z" id="Stroke-19" stroke-width="5.69999993"></path>
            </g>
        </g>
        <path d="M2139.46558,1400.49999 C2149.09038,1400.49999 2155.57758,1395.11519 2155.57758,1385.65999 C2155.57758,1376.24719 2149.09038,1370.81999 2139.46558,1370.81999 L2129.54398,1370.81999 L2129.54398,1400.49999 L2139.46558,1400.49999 Z M2139.50798,1395.32719 L2135.64958,1395.32719 L2135.64958,1375.99279 L2139.50798,1375.99279 C2145.06238,1375.99279 2149.38718,1379.21519 2149.38718,1385.70239 C2149.38718,1392.10479 2145.06238,1395.32719 2139.50798,1395.32719 Z M2165.46948,1400.49999 L2167.16548,1396.09039 L2179.97028,1396.09039 L2181.66628,1400.49999 L2188.02629,1400.49999 L2176.02708,1370.81999 L2171.10868,1370.81999 L2159.10948,1400.49999 L2165.46948,1400.49999 Z M2178.01988,1391.00239 L2169.11588,1391.00239 L2173.56788,1379.46959 L2178.01988,1391.00239 Z M2204.32059,1400.49999 L2204.32059,1375.99279 L2212.24939,1375.99279 L2212.24939,1370.81999 L2190.28618,1370.81999 L2190.28618,1375.99279 L2198.21499,1375.99279 L2198.21499,1400.49999 L2204.32059,1400.49999 Z M2220.86929,1400.49999 L2222.56529,1396.09039 L2235.37009,1396.09039 L2237.06609,1400.49999 L2243.42609,1400.49999 L2231.42689,1370.81999 L2226.50849,1370.81999 L2214.50929,1400.49999 L2220.86929,1400.49999 Z M2233.41969,1391.00239 L2224.51569,1391.00239 L2228.96769,1379.46959 L2233.41969,1391.00239 Z M2135.64958,1455.59999 L2135.64958,1447.88319 L2139.29598,1447.88319 C2146.71598,1447.88319 2151.21038,1443.09199 2151.21038,1436.90159 C2151.21038,1430.71119 2146.71598,1425.91999 2139.29598,1425.91999 L2129.54398,1425.91999 L2129.54398,1455.59999 L2135.64958,1455.59999 Z M2138.78718,1442.79519 L2135.64958,1442.79519 L2135.64958,1431.00799 L2138.78718,1431.00799 C2142.77278,1431.00799 2145.01998,1433.17039 2145.01998,1436.90159 C2145.01998,1440.63279 2142.77278,1442.79519 2138.78718,1442.79519 Z M2164.45188,1455.59999 L2164.45188,1446.95039 L2166.61428,1446.95039 C2170.76948,1446.95039 2173.52548,1449.91839 2174.03428,1454.79439 L2174.11908,1455.59999 L2180.05509,1455.59999 L2179.97029,1454.70959 C2179.54629,1450.17279 2177.68069,1446.95039 2174.75508,1445.12719 C2178.23189,1443.51599 2180.26709,1440.29359 2180.26709,1436.30799 C2180.26709,1430.49919 2175.85748,1425.91999 2168.56468,1425.91999 L2158.34628,1425.91999 L2158.34628,1455.59999 L2164.45188,1455.59999 Z M2168.43748,1441.86239 L2164.45188,1441.86239 L2164.45188,1431.00799 L2168.43748,1431.00799 C2171.78708,1431.00799 2174.07668,1432.87359 2174.07668,1436.43519 C2174.07668,1439.99679 2171.78708,1441.86239 2168.43748,1441.86239 Z M2206.86459,1455.59999 L2206.86459,1450.42719 L2194.35659,1450.42719 L2194.35659,1444.23679 L2204.53259,1444.23679 L2204.53259,1439.06399 L2194.35659,1439.06399 L2194.35659,1431.09279 L2206.48299,1431.09279 L2206.48299,1425.91999 L2188.25098,1425.91999 L2188.25098,1455.59999 L2206.86459,1455.59999 Z M2221.37809,1455.59999 L2221.37809,1447.88319 L2225.02449,1447.88319 C2232.44449,1447.88319 2236.93889,1443.09199 2236.93889,1436.90159 C2236.93889,1430.71119 2232.44449,1425.91999 2225.02449,1425.91999 L2215.27249,1425.91999 L2215.27249,1455.59999 L2221.37809,1455.59999 Z M2224.51569,1442.79519 L2221.37809,1442.79519 L2221.37809,1431.00799 L2224.51569,1431.00799 C2228.50129,1431.00799 2230.74849,1433.17039 2230.74849,1436.90159 C2230.74849,1440.63279 2228.50129,1442.79519 2224.51569,1442.79519 Z M2245.55879,1455.59999 L2247.25479,1451.19039 L2260.05959,1451.19039 L2261.75559,1455.59999 L2268.11559,1455.59999 L2256.11639,1425.91999 L2251.19799,1425.91999 L2239.19879,1455.59999 L2245.55879,1455.59999 Z M2258.10919,1446.10239 L2249.20519,1446.10239 L2253.65719,1434.56959 L2258.10919,1446.10239 Z M2280.50909,1455.59999 L2280.50909,1446.95039 L2282.67149,1446.95039 C2286.82669,1446.95039 2289.58269,1449.91839 2290.09149,1454.79439 L2290.17629,1455.59999 L2296.11229,1455.59999 L2296.02749,1454.70959 C2295.60349,1450.17279 2293.73789,1446.95039 2290.81229,1445.12719 C2294.28909,1443.51599 2296.32429,1440.29359 2296.32429,1436.30799 C2296.32429,1430.49919 2291.91469,1425.91999 2284.62189,1425.91999 L2274.40349,1425.91999 L2274.40349,1455.59999 L2280.50909,1455.59999 Z M2284.49469,1441.86239 L2280.50909,1441.86239 L2280.50909,1431.00799 L2284.49469,1431.00799 C2287.84429,1431.00799 2290.13389,1432.87359 2290.13389,1436.43519 C2290.13389,1439.99679 2287.84429,1441.86239 2284.49469,1441.86239 Z M2307.27619,1455.59999 L2308.97219,1451.19039 L2321.777,1451.19039 L2323.473,1455.59999 L2329.833,1455.59999 L2317.83379,1425.91999 L2312.91539,1425.91999 L2300.91619,1455.59999 L2307.27619,1455.59999 Z M2319.82659,1446.10239 L2310.92259,1446.10239 L2315.37459,1434.56959 L2319.82659,1446.10239 Z M2346.1273,1455.59999 L2346.1273,1431.09279 L2354.0561,1431.09279 L2354.0561,1425.91999 L2332.09289,1425.91999 L2332.09289,1431.09279 L2340.0217,1431.09279 L2340.0217,1455.59999 L2346.1273,1455.59999 Z M2367.9336,1455.59999 L2367.9336,1425.91999 L2361.828,1425.91999 L2361.828,1455.59999 L2367.9336,1455.59999 Z M2391.6055,1456.10879 C2400.5095,1456.10879 2407.5055,1449.74879 2407.5055,1440.75999 C2407.5055,1431.77119 2400.5095,1425.41119 2391.6055,1425.41119 C2382.7015,1425.41119 2375.7055,1431.77119 2375.7055,1440.75999 C2375.7055,1449.74879 2382.7015,1456.10879 2391.6055,1456.10879 Z M2391.6055,1450.85119 C2386.2207,1450.85119 2381.8959,1446.73839 2381.8959,1440.75999 C2381.8959,1434.78159 2386.2207,1430.66879 2391.6055,1430.66879 C2396.9903,1430.66879 2401.3151,1434.78159 2401.3151,1440.75999 C2401.3151,1446.73839 2396.9903,1450.85119 2391.6055,1450.85119 Z M2421.171,1455.59999 L2421.171,1436.94399 L2435.2902,1455.59999 L2439.7846,1455.59999 L2439.7846,1425.91999 L2433.679,1425.91999 L2433.679,1444.53359 L2419.5598,1425.91999 L2415.0654,1425.91999 L2415.0654,1455.59999 L2421.171,1455.59999 Z" id="Datapreparation" fill="#5F575A" fill-rule="nonzero"></path>
        <path d="M1478.64958,1952.49999 L1478.64958,1933.97119 L1487.80798,1946.22479 L1490.86078,1946.22479 L1500.01918,1933.97119 L1500.01918,1952.49999 L1506.12478,1952.49999 L1506.12478,1922.81999 L1501.54558,1922.81999 L1489.33438,1939.18639 L1477.12318,1922.81999 L1472.54398,1922.81999 L1472.54398,1952.49999 L1478.64958,1952.49999 Z M1529.58468,1953.00879 C1538.48869,1953.00879 1545.48469,1946.64879 1545.48469,1937.65999 C1545.48469,1928.67119 1538.48869,1922.31119 1529.58468,1922.31119 C1520.68068,1922.31119 1513.68468,1928.67119 1513.68468,1937.65999 C1513.68468,1946.64879 1520.68068,1953.00879 1529.58468,1953.00879 Z M1529.58468,1947.75119 C1524.19988,1947.75119 1519.87508,1943.63839 1519.87508,1937.65999 C1519.87508,1931.68159 1524.19988,1927.56879 1529.58468,1927.56879 C1534.96948,1927.56879 1539.29429,1931.68159 1539.29429,1937.65999 C1539.29429,1943.63839 1534.96948,1947.75119 1529.58468,1947.75119 Z M1562.96619,1952.49999 C1572.59099,1952.49999 1579.07819,1947.11519 1579.07819,1937.65999 C1579.07819,1928.24719 1572.59099,1922.81999 1562.96619,1922.81999 L1553.04458,1922.81999 L1553.04458,1952.49999 L1562.96619,1952.49999 Z M1563.00859,1947.32719 L1559.15018,1947.32719 L1559.15018,1927.99279 L1563.00859,1927.99279 C1568.56299,1927.99279 1572.88779,1931.21519 1572.88779,1937.70239 C1572.88779,1944.10479 1568.56299,1947.32719 1563.00859,1947.32719 Z M1605.25169,1952.49999 L1605.25169,1947.32719 L1592.74369,1947.32719 L1592.74369,1941.13679 L1602.91969,1941.13679 L1602.91969,1935.96399 L1592.74369,1935.96399 L1592.74369,1927.99279 L1604.87009,1927.99279 L1604.87009,1922.81999 L1586.63809,1922.81999 L1586.63809,1952.49999 L1605.25169,1952.49999 Z M1631.67959,1952.49999 L1631.67959,1947.32719 L1619.76519,1947.32719 L1619.76519,1922.81999 L1613.65959,1922.81999 L1613.65959,1952.49999 L1631.67959,1952.49999 Z M1645.34509,1952.49999 L1645.34509,1922.81999 L1639.23949,1922.81999 L1639.23949,1952.49999 L1645.34509,1952.49999 Z M1661.34259,1952.49999 L1661.34259,1933.84399 L1675.4618,1952.49999 L1679.9562,1952.49999 L1679.9562,1922.81999 L1673.8506,1922.81999 L1673.8506,1941.43359 L1659.73139,1922.81999 L1655.23699,1922.81999 L1655.23699,1952.49999 L1661.34259,1952.49999 Z M1703.4161,1953.00879 C1712.9561,1953.00879 1719.2313,1946.77599 1719.3161,1937.65999 L1703.1193,1937.65999 L1703.1193,1942.62079 L1711.8961,1942.62079 C1710.4121,1945.84319 1707.4441,1947.75119 1703.4161,1947.75119 C1697.7769,1947.75119 1693.7065,1943.72319 1693.7065,1937.65999 C1693.7065,1931.59679 1698.1585,1927.56879 1703.4161,1927.56879 C1707.1473,1927.56879 1710.5393,1929.64639 1712.1505,1933.08079 L1718.6801,1933.08079 C1716.7721,1926.50879 1710.5817,1922.31119 1703.4161,1922.31119 C1694.6393,1922.31119 1687.51609,1928.54399 1687.51609,1937.65999 C1687.51609,1946.77599 1694.3001,1953.00879 1703.4161,1953.00879 Z" id="modeling" fill="#5F575A" fill-rule="nonzero"></path>
        <path d="M82.1575829,1437.49999 L82.1575829,1432.32719 L69.6495811,1432.32719 L69.6495811,1426.13679 L79.8255826,1426.13679 L79.8255826,1420.96399 L69.6495811,1420.96399 L69.6495811,1412.99279 L81.7759828,1412.99279 L81.7759828,1407.81999 L63.5439803,1407.81999 L63.5439803,1437.49999 L82.1575829,1437.49999 Z M104.939084,1437.49999 L116.938286,1407.81999 L110.578285,1407.81999 L102.479884,1428.85039 L94.3814829,1407.81999 L88.0214821,1407.81999 L100.020684,1437.49999 L104.939084,1437.49999 Z M123.862185,1437.49999 L125.558185,1433.09039 L138.362987,1433.09039 L140.058987,1437.49999 L146.418988,1437.49999 L134.419786,1407.81999 L129.501386,1407.81999 L117.502184,1437.49999 L123.862185,1437.49999 Z M136.412587,1428.00239 L127.508585,1428.00239 L131.960586,1416.46959 L136.412587,1428.00239 Z M170.726889,1437.49999 L170.726889,1432.32719 L158.812487,1432.32719 L158.812487,1407.81999 L152.706886,1407.81999 L152.706886,1437.49999 L170.726889,1437.49999 Z M190.54039,1438.00879 C197.324391,1438.00879 203.005992,1433.93839 203.005992,1424.94959 L203.005992,1407.81999 L196.900391,1407.81999 L196.900391,1425.33119 C196.900391,1430.54639 193.847591,1432.75119 190.54039,1432.75119 C187.23319,1432.75119 184.180389,1430.54639 184.180389,1425.33119 L184.180389,1407.81999 L178.074789,1407.81999 L178.074789,1424.94959 C178.074789,1433.93839 183.756389,1438.00879 190.54039,1438.00879 Z M214.593891,1437.49999 L216.289891,1433.09039 L229.094693,1433.09039 L230.790693,1437.49999 L237.150694,1437.49999 L225.151492,1407.81999 L220.233092,1407.81999 L208.23389,1437.49999 L214.593891,1437.49999 Z M227.144293,1428.00239 L218.240292,1428.00239 L222.692292,1416.46959 L227.144293,1428.00239 Z M253.444994,1437.49999 L253.444994,1412.99279 L261.373795,1412.99279 L261.373795,1407.81999 L239.410592,1407.81999 L239.410592,1412.99279 L247.339393,1412.99279 L247.339393,1437.49999 L253.444994,1437.49999 Z M275.251296,1437.49999 L275.251296,1407.81999 L269.145695,1407.81999 L269.145695,1437.49999 L275.251296,1437.49999 Z M298.923199,1438.00879 C307.8272,1438.00879 314.823201,1431.64879 314.823201,1422.65999 C314.823201,1413.67119 307.8272,1407.31119 298.923199,1407.31119 C290.019198,1407.31119 283.023197,1413.67119 283.023197,1422.65999 C283.023197,1431.64879 290.019198,1438.00879 298.923199,1438.00879 Z M298.923199,1432.75119 C293.538398,1432.75119 289.213598,1428.63839 289.213598,1422.65999 C289.213598,1416.68159 293.538398,1412.56879 298.923199,1412.56879 C304.308,1412.56879 308.6328,1416.68159 308.6328,1422.65999 C308.6328,1428.63839 304.308,1432.75119 298.923199,1432.75119 Z M328.4887,1437.49999 L328.4887,1418.84399 L342.607902,1437.49999 L347.102302,1437.49999 L347.102302,1407.81999 L340.996702,1407.81999 L340.996702,1426.43359 L326.8775,1407.81999 L322.383099,1407.81999 L322.383099,1437.49999 L328.4887,1437.49999 Z" id="evaluation" fill="#5F575A" fill-rule="nonzero"></path>
        <g id="Group-12" transform="translate(1683.899980, 429.899993)" fill-rule="nonzero">
            <path d="M464.025751,123.63099 C420.874413,49.6865012 340.689657,0 248.899997,0 C111.436324,0 0,111.436324 0,248.899997 C0,386.363669 111.436324,497.799994 248.899997,497.799994 C302.886413,497.799994 352.858407,480.61221 393.642374,451.410246 C426.786566,427.678482 453.862582,396.012027 472.093607,359.187696" id="Path" stroke="#B1D474" stroke-width="25" fill="#FFFFFF"></path>
            <path d="M455.565601,231.599998 C465.190403,231.599998 471.677604,226.215197 471.677604,216.759996 C471.677604,207.347195 465.190403,201.919994 455.565601,201.919994 L445.644,201.919994 L445.644,231.599998 L455.565601,231.599998 Z M455.608001,226.427198 L451.749601,226.427198 L451.749601,207.092795 L455.608001,207.092795 C461.162402,207.092795 465.487203,210.315195 465.487203,216.802396 C465.487203,223.204797 461.162402,226.427198 455.608001,226.427198 Z M481.569502,231.599998 L483.265503,227.190398 L496.070305,227.190398 L497.766305,231.599998 L504.126306,231.599998 L492.127104,201.919994 L487.208703,201.919994 L475.209502,231.599998 L481.569502,231.599998 Z M494.119904,222.102397 L485.215903,222.102397 L489.667904,210.569595 L494.119904,222.102397 Z M520.420606,231.599998 L520.420606,207.092795 L528.349407,207.092795 L528.349407,201.919994 L506.386204,201.919994 L506.386204,207.092795 L514.315005,207.092795 L514.315005,231.599998 L520.420606,231.599998 Z M536.969307,231.599998 L538.665307,227.190398 L551.470109,227.190398 L553.166109,231.599998 L559.52611,231.599998 L547.526908,201.919994 L542.608507,201.919994 L530.609306,231.599998 L536.969307,231.599998 Z M549.519708,222.102397 L540.615707,222.102397 L545.067708,210.569595 L549.519708,222.102397 Z M458.109602,287.208798 C464.893603,287.208798 470.575204,283.138397 470.575204,274.149596 L470.575204,257.019993 L464.469603,257.019993 L464.469603,274.531196 C464.469603,279.746397 461.416802,281.951197 458.109602,281.951197 C454.802401,281.951197 451.749601,279.746397 451.749601,274.531196 L451.749601,257.019993 L445.644,257.019993 L445.644,274.149596 C445.644,283.138397 451.325601,287.208798 458.109602,287.208798 Z M486.360703,286.699998 L486.360703,268.043995 L500.479905,286.699998 L504.974306,286.699998 L504.974306,257.019993 L498.868705,257.019993 L498.868705,275.633596 L484.749503,257.019993 L480.255102,257.019993 L480.255102,286.699998 L486.360703,286.699998 Z M524.575805,286.699998 C534.200607,286.699998 540.687808,281.315197 540.687808,271.859995 C540.687808,262.447194 534.200607,257.019993 524.575805,257.019993 L514.654204,257.019993 L514.654204,286.699998 L524.575805,286.699998 Z M524.618205,281.527197 L520.759805,281.527197 L520.759805,262.192794 L524.618205,262.192794 C530.172606,262.192794 534.497407,265.415195 534.497407,271.902395 C534.497407,278.304796 530.172606,281.527197 524.618205,281.527197 Z M566.861309,286.699998 L566.861309,281.527197 L554.353307,281.527197 L554.353307,275.336796 L564.529308,275.336796 L564.529308,270.163995 L554.353307,270.163995 L554.353307,262.192794 L566.479709,262.192794 L566.479709,257.019993 L548.247706,257.019993 L548.247706,286.699998 L566.861309,286.699998 Z M581.374809,286.699998 L581.374809,278.050396 L583.537209,278.050396 C587.69241,278.050396 590.44841,281.018397 590.95721,285.894397 L591.04201,286.699998 L596.978011,286.699998 L596.893211,285.809597 C596.469211,281.272797 594.603611,278.050396 591.67801,276.227196 C595.154811,274.615996 597.190011,271.393595 597.190011,267.407995 C597.190011,261.599194 592.780411,257.019993 585.48761,257.019993 L575.269208,257.019993 L575.269208,286.699998 L581.374809,286.699998 Z M585.360409,272.962396 L581.374809,272.962396 L581.374809,262.107994 L585.360409,262.107994 C588.71001,262.107994 590.99961,263.973594 590.99961,267.535195 C590.99961,271.096795 588.71001,272.962396 585.360409,272.962396 Z M613.569111,287.208798 C619.547512,287.208798 623.278713,283.689597 623.278713,278.453196 C623.278713,274.297996 621.370712,271.626795 615.434712,269.082795 C611.279511,267.301995 610.049911,266.263195 610.049911,264.482394 C610.049911,262.998394 611.025111,261.768794 613.060311,261.768794 C615.053112,261.768794 616.240312,262.998394 616.240312,264.821594 L622.430713,264.821594 C622.430713,259.648794 618.445112,256.511193 613.145111,256.511193 C607.42111,256.511193 603.85951,259.691194 603.85951,264.567194 C603.85951,268.913195 605.95831,271.711595 611.873111,274.149596 C615.901112,275.803196 617.088312,276.905596 617.088312,278.813596 C617.088312,280.721597 615.731512,281.951197 613.653911,281.951197 C611.576311,281.951197 610.092311,280.933597 609.880311,278.813596 L603.68991,278.813596 C604.02911,283.562397 607.59071,287.208798 613.569111,287.208798 Z M642.753014,286.699998 L642.753014,262.192794 L650.681815,262.192794 L650.681815,257.019993 L628.718612,257.019993 L628.718612,262.192794 L636.647413,262.192794 L636.647413,286.699998 L642.753014,286.699998 Z M659.301715,286.699998 L660.997715,282.290397 L673.802517,282.290397 L675.498517,286.699998 L681.858518,286.699998 L669.859316,257.019993 L664.940916,257.019993 L652.941714,286.699998 L659.301715,286.699998 Z M671.852117,277.202396 L662.948115,277.202396 L667.400116,265.669595 L671.852117,277.202396 Z M694.252017,286.699998 L694.252017,268.043995 L708.371219,286.699998 L712.86562,286.699998 L712.86562,257.019993 L706.760019,257.019993 L706.760019,275.633596 L692.640817,257.019993 L688.146416,257.019993 L688.146416,286.699998 L694.252017,286.699998 Z M732.46712,286.699998 C742.091921,286.699998 748.579122,281.315197 748.579122,271.859995 C748.579122,262.447194 742.091921,257.019993 732.46712,257.019993 L722.545518,257.019993 L722.545518,286.699998 L732.46712,286.699998 Z M732.50952,281.527197 L728.651119,281.527197 L728.651119,262.192794 L732.50952,262.192794 C738.063921,262.192794 742.388721,265.415195 742.388721,271.902395 C742.388721,278.304796 738.063921,281.527197 732.50952,281.527197 Z M762.456621,286.699998 L762.456621,257.019993 L756.35102,257.019993 L756.35102,286.699998 L762.456621,286.699998 Z M778.454124,286.699998 L778.454124,268.043995 L792.573326,286.699998 L797.067726,286.699998 L797.067726,257.019993 L790.962125,257.019993 L790.962125,275.633596 L776.842923,257.019993 L772.348523,257.019993 L772.348523,286.699998 L778.454124,286.699998 Z M820.527627,287.208798 C830.067628,287.208798 836.342829,280.975997 836.427629,271.859995 L820.230827,271.859995 L820.230827,276.820796 L829.007628,276.820796 C827.523628,280.043197 824.555627,281.951197 820.527627,281.951197 C814.888426,281.951197 810.818025,277.923196 810.818025,271.859995 C810.818025,265.796795 815.270026,261.768794 820.527627,261.768794 C824.258827,261.768794 827.650828,263.846394 829.262028,267.280795 L835.791629,267.280795 C833.883628,260.708794 827.693228,256.511193 820.527627,256.511193 C811.750825,256.511193 804.627624,262.743994 804.627624,271.859995 C804.627624,280.975997 811.411625,287.208798 820.527627,287.208798 Z" id="DataUnderstanding" fill="#5F575A"></path>
            <g id="Group" transform="translate(162.799998, 154.999995)" stroke="#5F575A" stroke-width="9.49999988">
                <g id="Group-8" transform="translate(0.000000, 0.000000)">
                    <circle id="Oval" cx="88" cy="88" r="88"></circle>
                    <polyline id="Path-2" stroke-linecap="round" points="55.8553365 101.972948 78.7600511 119.52057 126.824483 53.7224579"></polyline>
                </g>
            </g>
        </g>
        <path d="M814.925731,553.530983 C771.774393,479.586494 691.589637,429.899993 599.799977,429.899993 C462.336305,429.899993 350.89998,541.336317 350.89998,678.79999 C350.89998,816.263662 462.336305,927.699987 599.799977,927.699987 C653.786393,927.699987 703.758387,910.512203 744.542355,881.310239 C777.686546,857.578475 804.762562,825.91202 822.993588,789.08769" id="Path" stroke="#8E8489" stroke-width="25" fill="#FFFFFF" fill-rule="nonzero" transform="translate(586.946784, 678.799990) scale(-1, 1) translate(-586.946784, -678.799990) "></path>
        <path d="M67.4655817,700.499991 C77.090383,700.499991 83.5775839,695.115191 83.5775839,685.659989 C83.5775839,676.247188 77.090383,670.819987 67.4655817,670.819987 L57.5439803,670.819987 L57.5439803,700.499991 L67.4655817,700.499991 Z M67.5079817,695.327191 L63.6495811,695.327191 L63.6495811,675.992788 L67.5079817,675.992788 C73.0623825,675.992788 77.3871831,679.215188 77.3871831,685.702389 C77.3871831,692.10479 73.0623825,695.327191 67.5079817,695.327191 Z M109.751085,700.499991 L109.751085,695.327191 L97.2430831,695.327191 L97.2430831,689.13679 L107.419085,689.13679 L107.419085,683.963989 L97.2430831,683.963989 L97.2430831,675.992788 L109.369485,675.992788 L109.369485,670.819987 L91.1374823,670.819987 L91.1374823,700.499991 L109.751085,700.499991 Z M124.264585,700.499991 L124.264585,692.78319 L127.910986,692.78319 C135.330987,692.78319 139.825387,687.99199 139.825387,681.801589 C139.825387,675.611188 135.330987,670.819987 127.910986,670.819987 L118.158984,670.819987 L118.158984,700.499991 L124.264585,700.499991 Z M127.402186,687.69519 L124.264585,687.69519 L124.264585,675.907988 L127.402186,675.907988 C131.387786,675.907988 133.634987,678.070388 133.634987,681.801589 C133.634987,685.532789 131.387786,687.69519 127.402186,687.69519 Z M164.981289,700.499991 L164.981289,695.327191 L153.066887,695.327191 L153.066887,670.819987 L146.961286,670.819987 L146.961286,700.499991 L164.981289,700.499991 Z M186.109191,701.008791 C195.013192,701.008791 202.009193,694.64879 202.009193,685.659989 C202.009193,676.671188 195.013192,670.311187 186.109191,670.311187 C177.205189,670.311187 170.209188,676.671188 170.209188,685.659989 C170.209188,694.64879 177.205189,701.008791 186.109191,701.008791 Z M186.109191,695.751191 C180.72439,695.751191 176.399589,691.63839 176.399589,685.659989 C176.399589,679.681588 180.72439,675.568788 186.109191,675.568788 C191.493991,675.568788 195.818792,679.681588 195.818792,685.659989 C195.818792,691.63839 191.493991,695.751191 186.109191,695.751191 Z M224.027493,700.499991 L224.027493,691.42639 L235.136294,670.819987 L228.437093,670.819987 L220.974692,685.405589 L213.512291,670.819987 L206.81309,670.819987 L217.921892,691.42639 L217.921892,700.499991 L224.027493,700.499991 Z M248.165793,700.499991 L248.165793,681.971189 L257.324195,694.22479 L260.376995,694.22479 L269.535396,681.971189 L269.535396,700.499991 L275.640997,700.499991 L275.640997,670.819987 L271.061797,670.819987 L258.850595,687.186389 L246.639393,670.819987 L242.060192,670.819987 L242.060192,700.499991 L248.165793,700.499991 Z M303.934497,700.499991 L303.934497,695.327191 L291.426495,695.327191 L291.426495,689.13679 L301.602497,689.13679 L301.602497,683.963989 L291.426495,683.963989 L291.426495,675.992788 L303.552897,675.992788 L303.552897,670.819987 L285.320894,670.819987 L285.320894,700.499991 L303.934497,700.499991 Z M318.447997,700.499991 L318.447997,681.843989 L332.567199,700.499991 L337.0616,700.499991 L337.0616,670.819987 L330.955999,670.819987 L330.955999,689.43359 L316.836797,670.819987 L312.342396,670.819987 L312.342396,700.499991 L318.447997,700.499991 Z M358.6559,700.499991 L358.6559,675.992788 L366.584701,675.992788 L366.584701,670.819987 L344.621498,670.819987 L344.621498,675.992788 L352.550299,675.992788 L352.550299,700.499991 L358.6559,700.499991 Z" id="deployment" fill="#5F575A" fill-rule="nonzero"></path>
        <g id="Group-26" transform="translate(1113.000000, 957.000000)" fill-rule="nonzero">
            <g id="Group-4" transform="translate(26.958621, 0.000000)" stroke="#FF1E1E">
                <path d="M216.041379,214.86911 L216.041379,268.612687 C209.442358,279.537562 173.442358,285 108.041379,285 C42.640401,285 6.64040098,279.537562 0.0413793103,268.612687 L0.0413793103,214.86911" id="Path" stroke-width="10.2599999" fill="#FFFFFF"></path>
                <path d="M108.039765,232.774869 C164.394771,232.774869 210.527022,226.865436 210.07953,215.640033 C210.07953,207.797456 164.394771,201.439791 108.039765,201.439791 C51.684759,201.439791 6,207.797456 6,215.640033 C6,229.278569 51.684759,232.774869 108.039765,232.774869 Z" id="Oval" stroke-width="10.2599999" fill="#FFFFFF"></path>
                <path d="M216.041379,147.722513 L216.041379,201.46609 C209.442358,212.390966 173.442358,217.853403 108.041379,217.853403 C42.640401,217.853403 6.64040098,212.390966 0.0413793103,201.46609 L0.0413793103,147.722513" id="Path" stroke-width="10.2599999" fill="#FFFFFF"></path>
                <path d="M108.039765,164.136126 C164.394771,164.136126 210.527022,158.226692 210.07953,147.00129 C210.07953,139.158712 164.394771,132.801047 108.039765,132.801047 C51.684759,132.801047 6,139.158712 6,147.00129 C6,160.639825 51.684759,164.136126 108.039765,164.136126 Z" id="Oval" stroke-width="10.2599999" fill="#FFFFFF"></path>
                <path d="M216.041379,79.0837696 L216.041379,132.827347 C209.442358,143.752222 173.442358,149.21466 108.041379,149.21466 C88.8051463,149.21466 72.1124227,148.742098 57.9632085,147.796976 C35.3255515,146.284853 16.0182751,141.294976 0.0413793103,132.827347 L0.0413793103,79.0837696" id="Path" stroke-width="10.2599999" fill="#FFFFFF"></path>
                <path d="M108.039765,96.9895288 C164.394771,96.9895288 210.527022,91.0800955 210.07953,79.8546931 C210.07953,72.0121156 164.394771,65.6544503 108.039765,65.6544503 C51.684759,65.6544503 6,72.0121156 6,79.8546931 C6,93.4932284 51.684759,96.9895288 108.039765,96.9895288 Z" id="Oval" stroke-width="10.2599999" fill="#FFFFFF"></path>
                <path d="M216.041379,13.4293194 L216.041379,67.1728966 C209.442358,78.0977718 173.442358,83.5602094 108.041379,83.5602094 C42.640401,83.5602094 6.64040098,78.0977718 0.0413793103,67.1728966 L0.0413793103,13.4293194" id="Path" stroke-width="10.2599999" fill="#FFFFFF"></path>
                <path d="M108.139669,31.3350785 C167.863559,31.3350785 216.75358,25.4256452 216.279338,14.2002429 C216.279338,6.35766529 167.863559,0 108.139669,0 C48.4157789,0 0,6.35766529 0,14.2002429 C0,27.8387781 48.4157789,31.3350785 108.139669,31.3350785 Z" id="Oval" stroke-width="10.2599999" fill="#FFFFFF"></path>
                <line x1="84.2875202" y1="52.9712042" x2="137.089655" y2="52.9712042" id="Line" stroke-width="9.49999988" stroke-linecap="square"></line>
                <line x1="84.2875202" y1="120.117801" x2="137.089655" y2="120.117801" id="Line" stroke-width="9.49999988" stroke-linecap="square"></line>
                <line x1="84.2875202" y1="188.756545" x2="137.089655" y2="188.756545" id="Line" stroke-width="9.49999988" stroke-linecap="square"></line>
                <line x1="84.2875202" y1="254.410995" x2="137.089655" y2="254.410995" id="Line" stroke-width="9.49999988" stroke-linecap="square"></line>
            </g>
            <path d="M92.1805984,365.099999 C101.8054,365.099999 108.292601,359.715199 108.292601,350.259997 C108.292601,340.847196 101.8054,335.419995 92.1805984,335.419995 L82.258997,335.419995 L82.258997,365.099999 L92.1805984,365.099999 Z M92.2229984,359.927199 L88.3645979,359.927199 L88.3645979,340.592796 L92.2229984,340.592796 C97.7773992,340.592796 102.1022,343.815196 102.1022,350.302397 C102.1022,356.704798 97.7773992,359.927199 92.2229984,359.927199 Z M118.184499,365.099999 L119.8805,360.690399 L132.685301,360.690399 L134.381302,365.099999 L140.741303,365.099999 L128.742101,335.419995 L123.8237,335.419995 L111.824499,365.099999 L118.184499,365.099999 Z M130.734901,355.602398 L121.8309,355.602398 L126.282901,344.069596 L130.734901,355.602398 Z M157.035603,365.099999 L157.035603,340.592796 L164.964404,340.592796 L164.964404,335.419995 L143.001201,335.419995 L143.001201,340.592796 L150.930002,340.592796 L150.930002,365.099999 L157.035603,365.099999 Z M173.584304,365.099999 L175.280304,360.690399 L188.085106,360.690399 L189.781106,365.099999 L196.141107,365.099999 L184.141905,335.419995 L179.223504,335.419995 L167.224303,365.099999 L173.584304,365.099999 Z M186.134705,355.602398 L177.230704,355.602398 L181.682705,344.069596 L186.134705,355.602398 Z" id="DATA" fill="#5F575A"></path>
        </g>
        <g id="Group-18" transform="translate(429.699996, 590.199989)" fill-rule="nonzero" stroke="#5F575A" stroke-linecap="round" stroke-width="9.49999988">
            <g id="Group-6" transform="translate(-0.000000, 0.000000)">
                <g id="Group-2" transform="translate(143.800004, 67.300011) rotate(-180.000000) translate(-143.800004, -67.300011) translate(10.300004, 10.800011)">
                    <line x1="208.091912" y1="4.54747351e-13" x2="266.884656" y2="69.7234043" id="Line-2" transform="translate(236.944853, 34.861702) rotate(-180.000000) translate(-236.944853, -34.861702) "></line>
                    <line x1="1.20220588" y1="0" x2="59.9949501" y2="69.7234043" id="Line-2" transform="translate(30.055147, 34.861702) scale(-1, 1) rotate(-180.000000) translate(-30.055147, -34.861702) "></line>
                    <line x1="133.5" y1="0" x2="133.5" y2="113" id="Line-3" transform="translate(133.500000, 56.500000) rotate(-180.000000) translate(-133.500000, -56.500000) "></line>
                </g>
                <polyline id="Path" stroke-linejoin="round" transform="translate(143.539395, 22.097087) rotate(-45.000000) translate(-143.539395, -22.097087) " points="127.914395 6.47208691 159.164395 6.47208691 159.164395 37.7220869"></polyline>
                <polyline id="Path-Copy" stroke-linejoin="round" transform="translate(271.390394, 61.082119) rotate(-10.000000) translate(-271.390394, -61.082119) " points="255.765394 45.4571192 287.015394 45.4571192 287.015394 76.7071192"></polyline>
                <polyline id="Path-Copy" stroke-linejoin="round" transform="translate(18.100874, 61.370105) scale(-1, 1) rotate(-10.000000) translate(-18.100874, -61.370105) " points="2.47587392 45.7451047 33.7258739 45.7451047 33.7258739 76.9951047"></polyline>
            </g>
        </g>
        <g id="Group-28" transform="translate(900.569790, 791.000000)" fill-rule="nonzero">
            <path d="M498.429306,566.596306 L498.425269,598.211508 C453.646435,622.320548 402.425645,636 348.011294,636 C294.741044,636 244.531473,622.889741 200.430354,599.718375 L200.429428,568.295587 C243.678054,593.874476 294.131206,608.553571 348.011294,608.553571 C403.073496,608.553571 454.556742,593.223299 498.429306,566.596306 Z M348.011294,0 C402.425645,0 453.646435,13.6794524 498.425269,37.7884925 L498.429306,69.4036945 C454.556742,42.7767006 403.073496,27.4464286 348.011294,27.4464286 C294.131206,27.4464286 243.678054,42.125524 200.429428,67.7044126 L200.430354,36.2816253 C244.531473,13.1102593 294.741044,0 348.011294,0 Z" id="Combined-Shape-Copy" fill="url(#linearGradient-1)"></path>
            <path d="M498.997289,566.891354 L498.992916,598.506759 C454.193808,622.615802 402.949826,636.295257 348.510837,636.295257 C295.216345,636.295257 244.983933,623.184936 200.862774,600.013469 L200.862342,568.590953 C244.130506,594.169774 294.606433,608.848828 348.510837,608.848828 C403.598111,608.848828 455.104788,593.518476 498.997289,566.891354 Z M348.510837,0.295256639 C402.949826,0.295256639 454.193808,13.9747109 498.992916,38.0837539 L498.997289,69.699159 C455.104788,43.0720371 403.598111,27.7416852 348.510837,27.7416852 C294.606433,27.7416852 244.130506,42.4207391 200.862342,67.9995606 L200.862774,36.5770447 C244.983933,13.4055773 295.216345,0.295256639 348.510837,0.295256639 Z" id="Combined-Shape-Copy-2" fill="url(#linearGradient-2)" transform="translate(349.929815, 318.295257) rotate(-300.000000) translate(-349.929815, -318.295257) "></path>
            <path d="M498.997869,566.891354 L498.993496,598.506759 C454.194388,622.615802 402.950406,636.295257 348.511417,636.295257 C295.216925,636.295257 244.984513,623.184936 200.863354,600.013469 L200.862922,568.590953 C244.131086,594.169774 294.607013,608.848828 348.511417,608.848828 C403.598691,608.848828 455.105369,593.518476 498.997869,566.891354 Z M348.511417,0.295256639 C402.950406,0.295256639 454.194388,13.9747109 498.993496,38.0837539 L498.997869,69.699159 C455.105369,43.0720371 403.598691,27.7416852 348.511417,27.7416852 C294.607013,27.7416852 244.131086,42.4207391 200.862922,67.9995606 L200.863354,36.5770447 C244.984513,13.4055773 295.216925,0.295256639 348.511417,0.295256639 Z" id="Combined-Shape-Copy-3" fill="url(#linearGradient-3)" transform="translate(349.930395, 318.295257) rotate(-240.000000) translate(-349.930395, -318.295257) "></path>
        </g>
        <g id="Group-7" transform="translate(1139.000000, 207.000000)">
            <path d="M6.76645782,79.0933137 C-0.948373105,54.60785 3.18850499,34.0874329 19.1770921,17.529981 C35.1656792,0.97252915 56.7829971,-2.27443816 84.0332011,7.78699771 M147.875349,45.2707376 C132.840467,59.6718701 117.778574,62.879291 102.691747,54.8930003 C102.691747,54.8930003 91.403119,61.686655 68.8237849,75.2760457 C62.5384729,76.9036921 57.6889131,75.8172069 54.2751056,72.0145087 C50.8592203,68.2118104 49.9533043,63.4225337 51.5573575,57.6487597 L99.3319622,11.9997297 C121.144592,-3.99990988 144.062606,-3.99990988 168.086004,11.9997297 C192.109401,28.0014506 196.381336,51.0590812 180.899729,81.174703 M139.572504,60.36081 L178.223537,99.3577199 C183.278797,107.008907 182.802984,113.527818 176.796095,118.910291 C170.789207,124.294845 165.008798,124.91718 159.450712,120.779379 C162.773097,129.502481 161.89627,135.705021 156.820231,139.386999 C151.744192,143.068977 146.364796,143.914021 140.677888,141.92005 C142.539587,150.124886 141.006178,156.289961 136.07974,160.415275 C131.151225,164.538507 125.884029,165.677027 120.276076,163.826672 C117.745329,173.942224 112.906158,179 105.758564,179 C98.6109694,179 94.1395673,177.05182 92.3443575,173.15754" id="Stroke-5" stroke="#5F575A" stroke-width="9.49999988" stroke-linecap="round" stroke-linejoin="round"></path>
            <path d="M129.612607,90 L159,119.458333 M109,110.833333 L140.44247,142.36875 M109,154.583333 L119.306303,165" id="Stroke-18" stroke="#5F575A" stroke-width="9.49999988" stroke-linecap="round"></path>
            <mask id="mask-5" fill="white">
                <use xlink:href="#path-4"></use>
            </mask>
            <g id="Clip-7"></g>
            <path d="M42.9531829,81.7780856 L42.9531829,81.7780856 C48.931134,88.7815101 48.20116,99.3926958 41.3262069,105.47843 L27.3185416,117.878797 C20.4435886,123.966631 10.0239312,123.223239 4.04598014,116.221914 C-1.92990886,109.21849 -1.20199691,98.6073042 5.67295613,92.5215698 L19.6806214,80.1212034 C26.5555744,74.033369 36.9752318,74.776761 42.9531829,81.7780856 Z" id="Stroke-6" stroke="#5F575A" stroke-width="15.1999998" stroke-linejoin="bevel" mask="url(#mask-5)"></path>
            <mask id="mask-7" fill="white">
                <use xlink:href="#path-6"></use>
            </mask>
            <g id="Clip-10"></g>
            <path d="M71.8872759,93.7392452 L71.8872759,93.7392452 C77.9625847,100.694739 77.2207222,111.233302 70.2338027,117.277385 L41.764306,141.906297 C34.7773865,147.952467 24.188033,147.216248 18.1127241,140.260755 C12.0374153,133.307347 12.7792778,122.768784 19.7661973,116.722615 L48.235694,92.0937027 C55.2226135,86.0475332 65.811967,86.7837518 71.8872759,93.7392452 Z" id="Stroke-9" stroke="#5F575A" stroke-width="15.1999998" stroke-linejoin="bevel" mask="url(#mask-7)"></path>
            <mask id="mask-9" fill="white">
                <use xlink:href="#path-8"></use>
            </mask>
            <g id="Clip-13"></g>
            <path d="M86.916586,111.776627 L86.916586,111.776627 C92.9477646,118.777425 92.2131179,129.38463 85.2745571,135.468081 L58.5712956,158.880343 C51.6327348,164.965893 41.1166737,164.22278 35.083414,157.224082 C29.0522354,150.223285 29.7868821,139.61608 36.7254429,133.532628 L63.4287044,110.120367 C70.3672652,104.034816 80.8833263,104.77583 86.916586,111.776627 Z" id="Stroke-12" stroke="#5F575A" stroke-width="15.1999998" stroke-linejoin="bevel" mask="url(#mask-9)"></path>
            <mask id="mask-11" fill="white">
                <use xlink:href="#path-10"></use>
            </mask>
            <g id="Clip-16"></g>
            <path d="M101.938042,133.681078 L101.938042,133.681078 C107.937817,140.566924 107.206995,150.99996 100.302493,156.983522 L78.427539,175.947987 C71.5251069,181.933614 61.0638025,181.202702 55.0619577,174.318922 C49.0621833,167.433076 49.7930047,157.00004 56.697507,151.016478 L78.5703907,132.052013 C85.4748931,126.066386 95.9361975,126.797298 101.938042,133.681078 Z" id="Stroke-15" stroke="#5F575A" stroke-width="15.1999998" stroke-linejoin="bevel" mask="url(#mask-11)"></path>
        </g>
        <polyline id="Path" stroke="#FFE801" stroke-width="10" stroke-linecap="round" points="1205.57227 696.554512 1250.15979 651.966991 1294.74731 696.554512"></polyline>
        <polyline id="Path" stroke="#F5A722" stroke-width="10" stroke-linecap="round" points="1294.74731 1517.37947 1250.15979 1561.96699 1205.57227 1517.37947"></polyline>
        <polyline id="Path" stroke="#B1D474" stroke-width="10" stroke-linecap="round" points="1556.15272 850.667445 1617.06041 866.98761 1600.74024 927.895296"></polyline>
        <polyline id="Path" stroke="#9E8DAC" stroke-width="10" stroke-linecap="round" points="917.84728 1321.79231 856.939594 1305.47215 873.259759 1244.56446"></polyline>
        <polyline id="Path" stroke="#5198AB" stroke-width="10" stroke-linecap="round" points="1630.74024 1210.56446 1647.06041 1271.47215 1586.15272 1287.79231"></polyline>
        <polyline id="Path" stroke="#8D8489" stroke-width="10" stroke-linecap="round" points="903.259759 953.895296 886.939594 892.98761 947.84728 876.667445"></polyline>
        <line x1="518.24062" y1="1405.49998" x2="572" y2="1405" id="Line-5" stroke="#5F575A" stroke-width="9.49999988" stroke-linecap="round" stroke-linejoin="round"></line>
        <line x1="494.24062" y1="1423.49998" x2="548" y2="1423" id="Line-5-Copy" stroke="#5F575A" stroke-width="9.49999988" stroke-linecap="round" stroke-linejoin="round"></line>
        <g id="Group-7" transform="translate(685.259538, 614.479259)" fill-rule="nonzero" stroke="#C8C8C8" stroke-linecap="round">
            <polyline id="Path" stroke-width="9.49999988" stroke-linejoin="round" transform="translate(312.648334, 17.397170) rotate(12.000000) translate(-312.648334, -17.397170) " points="297.98029 2.72912588 327.316378 2.72912588 327.316378 32.0652139"></polyline>
            <path d="M46.4337687,519.47176 C321.275645,423.162569 385.005548,150.535762 380.945013,37.6262422" id="Path" stroke-width="11.3999999" transform="translate(213.778759, 278.549001) rotate(-192.000000) translate(-213.778759, -278.549001) "></path>
        </g>
    </g>
</svg>